<svg xmlns="http://www.w3.org/2000/svg" xmlns:xlink="http://www.w3.org/1999/xlink" width="115" height="115" viewBox="0 0 115 115">
  <defs>
    <clipPath id="clip-path">
      <rect id="Rectangle_426198" data-name="Rectangle 426198" width="115" height="115" transform="translate(800.781 1954)" fill="#e8bad8" opacity="0.41"/>
    </clipPath>
  </defs>
  <g id="Mask_Group_1099748" data-name="Mask Group 1099748" transform="translate(-800.781 -1954)" clip-path="url(#clip-path)">
    <g id="Group_1229250" data-name="Group 1229250" transform="translate(799.781 1960.273)">
      <g id="Group_1229248" data-name="Group 1229248" transform="translate(1)">
        <ellipse id="Ellipse_13157" data-name="Ellipse 13157" cx="28.658" cy="28.658" rx="28.658" ry="28.658" transform="translate(56.527 44.289)" fill="#b8b1fc"/>
        <ellipse id="Ellipse_13158" data-name="Ellipse 13158" cx="20.842" cy="20.842" rx="20.842" ry="20.842" fill="#b8b1fc"/>
      </g>
      <g id="Group_1229251" data-name="Group 1229251" transform="translate(6426.088 -16498.555)">
        <path id="Path_1525702" data-name="Path 1525702" d="M36.656,64.352a32.356,32.356,0,0,1-25.031-11.8A1.09,1.09,0,1,1,13.3,51.16a30.265,30.265,0,0,0,47.243-.675,1.09,1.09,0,0,1,1.72,1.338A32.255,32.255,0,0,1,36.656,64.352" transform="translate(-6404.822 16526.977)" fill="#002535"/>
        <path id="Path_1525703" data-name="Path 1525703" d="M32.139,12.706h-1.86A4.986,4.986,0,0,1,25.3,7.726V4.982A4.988,4.988,0,0,1,30.279,0h1.86a4.988,4.988,0,0,1,4.981,4.982V7.726a4.986,4.986,0,0,1-4.981,4.981" transform="translate(-6399.375 16507.389)" fill="#fed094" stroke="#000" stroke-linecap="round" stroke-linejoin="round" stroke-width="2"/>
        <path id="Path_1525704" data-name="Path 1525704" d="M42,23.466H23.037a1.09,1.09,0,0,1-1.089-1.089V17.314a7.446,7.446,0,0,1,7.438-7.438,1.09,1.09,0,0,1,.771.32l2.362,2.362L34.882,10.2a1.09,1.09,0,0,1,.771-.32,7.447,7.447,0,0,1,7.438,7.438v5.063A1.09,1.09,0,0,1,42,23.466" transform="translate(-6400.686 16511.252)" fill="#f68c29" stroke="#000" stroke-linecap="round" stroke-linejoin="round" stroke-width="2"/>
        <path id="Path_1525705" data-name="Path 1525705" d="M10.191,42.817H8.331A4.986,4.986,0,0,1,3.35,37.837V35.093a4.988,4.988,0,0,1,4.981-4.982h1.86a4.988,4.988,0,0,1,4.981,4.982v2.744a4.986,4.986,0,0,1-4.981,4.981" transform="translate(-6407.961 16519.17)" fill="#fed094" stroke="#000" stroke-linecap="round" stroke-linejoin="round" stroke-width="2"/>
        <path id="Path_1525706" data-name="Path 1525706" d="M20.052,53.577H1.089A1.09,1.09,0,0,1,0,52.487V47.425a7.446,7.446,0,0,1,7.438-7.438,1.09,1.09,0,0,1,.771.32l2.362,2.362,2.364-2.362a1.09,1.09,0,0,1,.771-.32,7.447,7.447,0,0,1,7.438,7.438v5.063a1.09,1.09,0,0,1-1.091,1.089" transform="translate(-6409.272 16523.033)" fill="#2db5ac" stroke="#000" stroke-linecap="round" stroke-linejoin="round" stroke-width="2"/>
        <path id="Path_1525707" data-name="Path 1525707" d="M63.948,53.528H44.985A1.09,1.09,0,0,1,43.9,52.437V47.376a7.446,7.446,0,0,1,7.438-7.438,1.09,1.09,0,0,1,.771.32l2.362,2.362,2.362-2.362a1.092,1.092,0,0,1,.771-.32,7.446,7.446,0,0,1,7.438,7.438v5.061a1.09,1.09,0,0,1-1.089,1.091" transform="translate(-6392.098 16523.014)" fill="#ee464a" stroke="#000" stroke-linecap="round" stroke-linejoin="round" stroke-width="2"/>
        <path id="Path_1525708" data-name="Path 1525708" d="M32.558.607a3.131,3.131,0,0,1,.578,1.816v3.43A3.148,3.148,0,0,1,29.99,9H27.235a3.2,3.2,0,0,1-.443-.035,3.784,3.784,0,0,0,2.221.72h1.424a3.816,3.816,0,0,0,3.811-3.812v-2.1A3.813,3.813,0,0,0,32.558.607" transform="translate(-6398.269 16508.596)" fill="#efc18f"/>
        <path id="Path_1525709" data-name="Path 1525709" d="M31.835,9.876a.832.832,0,0,0-.586.242A5.7,5.7,0,0,1,35.3,15.569v3.874a.835.835,0,0,1-.835.835h2.225a.835.835,0,0,0,.835-.835V15.569a5.7,5.7,0,0,0-5.693-5.693" transform="translate(-6396.589 16512.922)" fill="#e57d28"/>
        <path id="Path_1525710" data-name="Path 1525710" d="M10.609,30.718a3.132,3.132,0,0,1,.579,1.816v3.43a3.149,3.149,0,0,1-3.148,3.148H5.287a3.217,3.217,0,0,1-.444-.035,3.786,3.786,0,0,0,2.221.72H8.488A4,4,0,0,0,12.3,35.984v-2.1a3.811,3.811,0,0,0-1.691-3.166" transform="translate(-6406.654 16520.375)" fill="#efc18f"/>
        <path id="Path_1525711" data-name="Path 1525711" d="M9.887,39.987a.837.837,0,0,0-.587.242,5.7,5.7,0,0,1,4.055,5.451v3.874a.835.835,0,0,1-.835.835h2.225a.835.835,0,0,0,.835-.835V45.68a5.7,5.7,0,0,0-5.693-5.693" transform="translate(-6404.973 16524.613)" fill="#23a098"/>
        <path id="Path_1525712" data-name="Path 1525712" d="M53.783,39.938a.832.832,0,0,0-.586.242,5.7,5.7,0,0,1,4.054,5.451v3.874a.835.835,0,0,1-.835.835h2.226a.835.835,0,0,0,.834-.835V45.631a5.7,5.7,0,0,0-5.693-5.693" transform="translate(-6387.746 16524.609)" fill="#d3404a"/>
        <path id="Path_1525713" data-name="Path 1525713" d="M54.586,33.585a1.088,1.088,0,0,1-1-.647A30.4,30.4,0,0,0,39.406,18.124a1.09,1.09,0,1,1,.972-1.951,32.579,32.579,0,0,1,15.2,15.878,1.09,1.09,0,0,1-.995,1.533" transform="translate(-6394.091 16513.67)" fill="#002535"/>
        <path id="Path_1525714" data-name="Path 1525714" d="M9.007,34.384A1.089,1.089,0,0,1,8,32.878,32.478,32.478,0,0,1,23.555,16.172a1.09,1.09,0,1,1,.972,1.951A30.323,30.323,0,0,0,10.014,33.709a1.092,1.092,0,0,1-1.007.675" transform="translate(-6406.175 16513.67)" fill="#002535"/>
        <path id="Path_1525715" data-name="Path 1525715" d="M36.853,56.265H29.339a1.09,1.09,0,0,1-1.089-1.089v-3.7a11.908,11.908,0,1,1,9.693,0v3.7a1.089,1.089,0,0,1-1.089,1.089" transform="translate(-6400.982 16518.613)" fill="#f7d309" stroke="#000" stroke-linecap="round" stroke-linejoin="round" stroke-width="2"/>
        <path id="Path_1525716" data-name="Path 1525716" d="M31.11,55.163a4.85,4.85,0,0,1-4.844-4.844v-.282a1.089,1.089,0,0,1,1.089-1.089h7.509a1.09,1.09,0,0,1,1.091,1.089v.282a4.85,4.85,0,0,1-4.844,4.844" transform="translate(-6398.996 16526.539)" fill="#086362" stroke="#000" stroke-linecap="round" stroke-linejoin="round" stroke-width="2"/>
        <path id="Path_1525717" data-name="Path 1525717" d="M29.852,28.112a1.089,1.089,0,0,1-1.089-1.089V25.283a1.089,1.089,0,0,1,2.179,0v1.739a1.089,1.089,0,0,1-1.089,1.089" transform="translate(-6398.019 16516.854)" fill="#f7d309"/>
        <path id="Path_1525718" data-name="Path 1525718" d="M25.015,29.517a1.09,1.09,0,0,1-.945-.545l-.87-1.505a1.09,1.09,0,1,1,1.888-1.089l.87,1.505a1.09,1.09,0,0,1-.943,1.635" transform="translate(-6400.252 16517.496)" fill="#f7d309"/>
        <path id="Path_1525719" data-name="Path 1525719" d="M21.526,33.153a1.086,1.086,0,0,1-.544-.146l-1.505-.87a1.09,1.09,0,1,1,1.091-1.888l1.5.87a1.09,1.09,0,0,1-.545,2.034" transform="translate(-6401.866 16519.168)" fill="#f7d309"/>
        <path id="Path_1525720" data-name="Path 1525720" d="M38.8,32.8a1.09,1.09,0,0,1-.545-2.034l1.5-.87a1.09,1.09,0,1,1,1.091,1.888l-1.505.87a1.086,1.086,0,0,1-.544.146" transform="translate(-6394.517 16519.029)" fill="#f7d309"/>
        <path id="Path_1525721" data-name="Path 1525721" d="M34.988,29.315a1.09,1.09,0,0,1-.943-1.635l.87-1.505A1.09,1.09,0,0,1,36.8,27.265l-.87,1.505a1.09,1.09,0,0,1-.945.545" transform="translate(-6396.01 16517.418)" fill="#f7d309"/>
        <path id="Path_1525722" data-name="Path 1525722" d="M52.905,42.066a5.018,5.018,0,1,1,5.018-5.018,5.024,5.024,0,0,1-5.018,5.018" transform="translate(-6390.537 16519.92)" fill="#fed094" stroke="#000" stroke-linecap="round" stroke-linejoin="round" stroke-width="2"/>
        <path id="Path_1525723" data-name="Path 1525723" d="M49.924,33.637s1.063,3.254,5.66,2.909c.835-1.286,0-1.628,0-1.628l-3.865-2.094Z" transform="translate(-6389.74 16520.23)" fill="#efc18f"/>
        <path id="Path_1525724" data-name="Path 1525724" d="M58.43,35.065a5.452,5.452,0,0,0-5.4-4.723,5.351,5.351,0,0,0-.9.077,5.45,5.45,0,0,0-2.8,9.38,4.249,4.249,0,0,1,2.553-6.181,3.955,3.955,0,0,0,5.047,2.405,4.254,4.254,0,0,1-.2,3.776,5.433,5.433,0,0,0,1.7-4.733" transform="translate(-6390.659 16519.26)" fill="#fff" stroke="#000" stroke-linecap="round" stroke-linejoin="round" stroke-width="2"/>
        <path id="Path_1525725" data-name="Path 1525725" d="M56.943,40.783a.769.769,0,0,1-.669-1.148,3.489,3.489,0,0,0,.449-1.711,3.562,3.562,0,0,0-.082-.761A4.726,4.726,0,0,1,51.7,34.807a3.477,3.477,0,0,0-1.483,4.828.769.769,0,0,1-1.192.943,6.22,6.22,0,0,1,3.194-10.7,6.141,6.141,0,0,1,1.028-.086,6.219,6.219,0,0,1,4.221,10.789.763.763,0,0,1-.522.2" transform="translate(-6390.875 16519.045)" fill="#002535" stroke="#000" stroke-linecap="round" stroke-linejoin="round" stroke-width="2"/>
      </g>
    </g>
  </g>
</svg>
