<svg xmlns="http://www.w3.org/2000/svg" xmlns:xlink="http://www.w3.org/1999/xlink" width="115" height="115" viewBox="0 0 115 115">
  <defs>
    <clipPath id="clip-path">
      <rect id="Rectangle_426539" data-name="Rectangle 426539" width="115" height="115" transform="translate(800.781 1954)" fill="#e8bad8" opacity="0.41"/>
    </clipPath>
  </defs>
  <g id="Mask_Group_1099819" data-name="Mask Group 1099819" transform="translate(-800.781 -1954)" clip-path="url(#clip-path)">
    <g id="Group_1229534" data-name="Group 1229534" transform="translate(799.781 1960.273)">
      <g id="Group_1229532" data-name="Group 1229532" transform="translate(1)">
        <ellipse id="Ellipse_13229" data-name="Ellipse 13229" cx="28.658" cy="28.658" rx="28.658" ry="28.658" transform="translate(56.527 44.289)" fill="#ffc94a"/>
        <ellipse id="Ellipse_13230" data-name="Ellipse 13230" cx="20.842" cy="20.842" rx="20.842" ry="20.842" fill="#ffc94a"/>
      </g>
      <g id="Group_1229587" data-name="Group 1229587" transform="translate(19.338 8.458)">
        <path id="Path_1532182" data-name="Path 1532182" d="M51.2,7.283v63.93H6.07v9.478h54.6V7.283Z" transform="translate(2.956 3.547)" fill="#bec3c7" stroke="#000" stroke-linecap="round" stroke-linejoin="round" stroke-width="2"/>
        <path id="Path_1532183" data-name="Path 1532183" d="M11.282,0,0,11.282V75.213H54.6V0Z" transform="translate(0 0)" fill="#ecf0f1" stroke="#000" stroke-linecap="round" stroke-linejoin="round" stroke-width="2"/>
        <rect id="Rectangle_426630" data-name="Rectangle 426630" width="28.28" height="9.477" transform="translate(18.803 7.521)" fill="#e3835a" stroke="#000" stroke-linecap="round" stroke-linejoin="round" stroke-width="2"/>
        <path id="Path_1532184" data-name="Path 1532184" d="M11.282,0V11.282H0L11.282,0" transform="translate(0 0)" fill="#bec3c7" stroke="#000" stroke-linecap="round" stroke-linejoin="round" stroke-width="2"/>
        <path id="Path_1532185" data-name="Path 1532185" d="M51.22,54.322a1.955,1.955,0,1,1-1.955,1.955,2.1,2.1,0,0,1,1.955-1.955" transform="translate(23.993 26.456)" fill="#d7deed" stroke="#000" stroke-linecap="round" stroke-linejoin="round" stroke-width="2"/>
        <path id="Path_1532186" data-name="Path 1532186" d="M47.476,12.645A1.955,1.955,0,1,1,45.521,14.6a1.9,1.9,0,0,1,1.955-1.955" transform="translate(22.169 6.158)" fill="#d7deed" stroke="#000" stroke-linecap="round" stroke-linejoin="round" stroke-width="2"/>
        <path id="Path_1532187" data-name="Path 1532187" d="M25.93,20.232a1.955,1.955,0,1,1-1.955,1.955,1.991,1.991,0,0,1,1.955-1.955" transform="translate(11.676 9.853)" fill="#65b2fe" stroke="#000" stroke-linecap="round" stroke-linejoin="round" stroke-width="2"/>
        <path id="Path_1532188" data-name="Path 1532188" d="M26.457,20.2H5.7a1.955,1.955,0,0,1,0-3.911H26.457a1.955,1.955,0,0,1,0,3.911" transform="translate(1.823 7.932)" fill="#65b2fe" stroke="#000" stroke-linecap="round" stroke-linejoin="round" stroke-width="2"/>
        <path id="Path_1532189" data-name="Path 1532189" d="M30.218,24.042H5.7a1.955,1.955,0,0,1,0-3.911H30.218a1.991,1.991,0,0,1,1.955,1.955,2.1,2.1,0,0,1-1.955,1.955" transform="translate(1.823 9.804)" fill="#65b2fe" stroke="#000" stroke-linecap="round" stroke-linejoin="round" stroke-width="2"/>
        <path id="Path_1532190" data-name="Path 1532190" d="M45.26,27.783H5.7a1.955,1.955,0,1,1,0-3.909H45.26a1.955,1.955,0,1,1,0,3.909" transform="translate(1.823 11.627)" fill="#65b2fe" stroke="#000" stroke-linecap="round" stroke-linejoin="round" stroke-width="2"/>
        <path id="Path_1532191" data-name="Path 1532191" d="M45.26,31.629H5.7a1.955,1.955,0,1,1,0-3.911H45.26a1.955,1.955,0,0,1,0,3.911" transform="translate(1.823 13.499)" fill="#65b2fe" stroke="#000" stroke-linecap="round" stroke-linejoin="round" stroke-width="2"/>
        <path id="Path_1532192" data-name="Path 1532192" d="M45.26,35.371H5.7a1.955,1.955,0,1,1,0-3.911H45.26a1.955,1.955,0,0,1,0,3.911" transform="translate(1.823 15.322)" fill="#65b2fe" stroke="#000" stroke-linecap="round" stroke-linejoin="round" stroke-width="2"/>
        <path id="Path_1532193" data-name="Path 1532193" d="M45.26,39.216H5.7a1.955,1.955,0,1,1,0-3.911H45.26a1.955,1.955,0,0,1,0,3.911" transform="translate(1.823 17.194)" fill="#65b2fe" stroke="#000" stroke-linecap="round" stroke-linejoin="round" stroke-width="2"/>
        <path id="Path_1532194" data-name="Path 1532194" d="M45.26,42.958H5.7a1.955,1.955,0,1,1,0-3.911H45.26a1.955,1.955,0,0,1,0,3.911" transform="translate(1.823 19.017)" fill="#65b2fe" stroke="#000" stroke-linecap="round" stroke-linejoin="round" stroke-width="2"/>
        <path id="Path_1532195" data-name="Path 1532195" d="M45.26,46.8H5.7a1.955,1.955,0,1,1,0-3.911H45.26a1.991,1.991,0,0,1,1.955,1.955A2.1,2.1,0,0,1,45.26,46.8" transform="translate(1.823 20.889)" fill="#65b2fe" stroke="#000" stroke-linecap="round" stroke-linejoin="round" stroke-width="2"/>
        <path id="Path_1532196" data-name="Path 1532196" d="M47.476,59.71a1.991,1.991,0,0,1-1.955-1.955V18.342a1.956,1.956,0,0,1,3.912,0V57.9a2.093,2.093,0,0,1-1.957,1.805" transform="translate(22.169 7.981)" fill="#d7deed" stroke="#000" stroke-linecap="round" stroke-linejoin="round" stroke-width="2"/>
        <path id="Path_1532197" data-name="Path 1532197" d="M51.22,63.01a1.991,1.991,0,0,1-1.955-1.955V34.73a1.955,1.955,0,1,1,3.909,0V61.055A1.99,1.99,0,0,1,51.22,63.01" transform="translate(23.993 15.962)" fill="#d7deed" stroke="#000" stroke-linecap="round" stroke-linejoin="round" stroke-width="2"/>
      </g>
    </g>
  </g>
</svg>
