<svg xmlns="http://www.w3.org/2000/svg" width="76.345" height="76.345" viewBox="0 0 76.345 76.345">
  <g id="Group_1203797" data-name="Group 1203797" transform="translate(-1021.691 -3093)">
    <g id="Group_1200255" data-name="Group 1200255" transform="translate(-0.275 0.345)">
      <g id="Group_1187152" data-name="Group 1187152">
        <g id="Group_1185946" data-name="Group 1185946" transform="translate(-3.07)">
          <g id="Group_1184280" data-name="Group 1184280">
            <g id="Group_1182168" data-name="Group 1182168">
              <g id="Group_1178877" data-name="Group 1178877">
                <g id="Group_1111311" data-name="Group 1111311">
                  <g id="Group_1098742" data-name="Group 1098742" transform="translate(1025.482 3093.101)">
                    <g id="Rectangle_400898" data-name="Rectangle 400898" transform="translate(-0.445 -0.445)" fill="#76cfe7" stroke="#76cfe7" stroke-width="1" opacity="0.859">
                      <rect width="76.345" height="76.345" rx="38.172" stroke="none"/>
                      <rect x="0.5" y="0.5" width="75.345" height="75.345" rx="37.672" fill="none"/>
                    </g>
                    <g id="Rectangle_400907" data-name="Rectangle 400907" transform="translate(-0.446 -0.445)" fill="none" stroke="#76cfe7" stroke-width="1">
                      <rect width="76.345" height="76.345" rx="38.172" stroke="none"/>
                      <rect x="0.5" y="0.5" width="75.345" height="75.345" rx="37.672" fill="none"/>
                    </g>
                  </g>
                </g>
              </g>
            </g>
          </g>
        </g>
      </g>
    </g>
    <g id="presentation_951775" transform="translate(1034.689 3109)">
      <g id="Group_1203785" data-name="Group 1203785" transform="translate(0.848 0.847)">
        <g id="Group_1203784" data-name="Group 1203784" transform="translate(12.706)">
          <path id="Path_1264564" data-name="Path 1264564" d="M237.933,383h3.388v10.164a1.694,1.694,0,0,1-3.388,0V383Z" transform="translate(-227.771 -345.735)" fill="#795548"/>
          <path id="Path_1264565" data-name="Path 1264565" d="M153.654,44.8l5.378,9.317a1.692,1.692,0,0,1-2.93,1.694L149.75,44.8h-4.692l-6.352,11.011a1.692,1.692,0,1,1-2.931-1.694l5.378-9.317,2.863-33.879a3.388,3.388,0,1,1,6.776,0Z" transform="translate(-135.547 -7.535)" fill="#795548"/>
        </g>
        <path id="Path_1264566" data-name="Path 1264566" d="M9.228,41.669H54.965a1.694,1.694,0,0,1,1.694,1.694V73.854a1.694,1.694,0,0,1-1.694,1.694H9.228a1.694,1.694,0,0,1-1.694-1.694V43.363A1.694,1.694,0,0,1,9.228,41.669Z" transform="translate(-7.534 -38.281)" fill="#ffb301"/>
        <path id="Path_1264567" data-name="Path 1264567" d="M9.228,41.669h43.2a1.694,1.694,0,0,1,1.694,1.694V73.854a1.694,1.694,0,0,1-1.694,1.694H9.228a1.694,1.694,0,0,1-1.694-1.694V43.363A1.694,1.694,0,0,1,9.228,41.669Z" transform="translate(-7.534 -38.281)" fill="#fec108"/>
        <path id="Path_1264568" data-name="Path 1264568" d="M371.016,92.869v5.082h-5.082a5.082,5.082,0,1,0,5.082-5.082Z" transform="translate(-330.361 -84.399)" fill="#e91e63"/>
        <path id="Path_1264569" data-name="Path 1264569" d="M92.8,272.069l-1.694,3.388H86.028l-1.694-3.388Z" transform="translate(-76.711 -245.813)" fill="#f5f5f5"/>
        <path id="Path_1264570" data-name="Path 1264570" d="M109.775,306.2a2.063,2.063,0,0,1,.127.726c0,1.205-2.117,4.356-2.117,4.356s-2.117-3.151-2.117-4.356a2.063,2.063,0,0,1,.127-.726Z" transform="translate(-95.927 -276.558)" fill="#fec108"/>
        <path id="Path_1264571" data-name="Path 1264571" d="M54.373,179.833l4.142,4.15h.008l.085-.025v-9.207l-4.235-5.082H45.9l-4.235,5.082v9.207l.085.025h.008l4.142-4.15Z" transform="translate(-38.28 -153.576)" fill="#f44335"/>
        <path id="Path_1264572" data-name="Path 1264572" d="M92.8,15.159h-8.47c0-.119,0-.237.008-.356.186-2.685,2.321-5.294,3.481-6.53.449-.466.745-.737.745-.737S92.8,11.33,92.8,15.159Z" transform="translate(-76.711 -7.536)" fill="#c52828"/>
        <path id="Path_1264573" data-name="Path 1264573" d="M90.263,21.846H84.334c0-.119,0-.237.008-.356.186-2.685,2.321-5.294,3.481-6.53A13.666,13.666,0,0,1,90.263,21.846Z" transform="translate(-76.711 -14.223)" fill="#f44335"/>
        <rect id="Rectangle_411751" data-name="Rectangle 411751" width="8.47" height="18.633" transform="translate(7.623 7.623)" fill="#cfd8dc"/>
        <rect id="Rectangle_411752" data-name="Rectangle 411752" width="5.929" height="18.633" transform="translate(7.623 7.623)" fill="#f5f5f5"/>
        <rect id="Rectangle_411753" data-name="Rectangle 411753" width="2.541" height="4.235" transform="translate(13.552 22.021)" fill="#283593"/>
        <rect id="Rectangle_411754" data-name="Rectangle 411754" width="5.929" height="4.235" transform="translate(7.623 22.021)" fill="#3f51b5"/>
      </g>
      <g id="Group_1203786" data-name="Group 1203786" transform="translate(0.001 0)">
        <path id="Path_1264574" data-name="Path 1264574" d="M268.642,238.936H248.315a.847.847,0,0,0,0,1.694h20.327a.847.847,0,0,0,0-1.694Z" transform="translate(-222.906 -215.22)"/>
        <path id="Path_1264575" data-name="Path 1264575" d="M268.642,273.069H248.315a.847.847,0,0,0,0,1.694h20.327a.847.847,0,1,0,0-1.694Z" transform="translate(-222.906 -245.966)"/>
        <path id="Path_1264576" data-name="Path 1264576" d="M268.642,307.2H248.315a.847.847,0,0,0,0,1.694h20.327a.847.847,0,0,0,0-1.694Z" transform="translate(-222.906 -276.711)"/>
        <path id="Path_1264577" data-name="Path 1264577" d="M364.33,85.336a.847.847,0,0,0-.847.847v4.235h-4.235a.847.847,0,0,0-.847.847,5.929,5.929,0,1,0,5.929-5.929Zm0,10.164a4.242,4.242,0,0,1-4.15-3.388h4.15a.847.847,0,0,0,.847-.847v-4.15a4.235,4.235,0,0,1-.847,8.384Z" transform="translate(-322.828 -76.866)"/>
        <path id="Path_1264578" data-name="Path 1264578" d="M248.316,104.881h9.317a.847.847,0,1,0,0-1.694h-4.448a11.174,11.174,0,0,0,4.578-8.47.847.847,0,0,0-1.694,0c0,3.192-2.853,7.828-6.906,8.408V94.717a.847.847,0,0,0-1.694,0v9.317a.847.847,0,0,0,.847.847Z" transform="translate(-222.907 -84.553)"/>
        <path id="Path_1264579" data-name="Path 1264579" d="M48.279,3.388H29.56a4.235,4.235,0,0,0-8.3,0H15.974a18.274,18.274,0,0,0-2.7-3.172.846.846,0,0,0-1.131,0,18.267,18.267,0,0,0-2.7,3.172h-6.9A2.544,2.544,0,0,0,0,5.929V36.421a2.544,2.544,0,0,0,2.541,2.541H17.693L13.046,47.01a2.536,2.536,0,0,0-.254,1.925,2.509,2.509,0,0,0,1.186,1.543,2.535,2.535,0,0,0,1.925.254,2.507,2.507,0,0,0,1.542-1.184l5.424-9.4v8.131a2.541,2.541,0,0,0,5.082,0V40.147l5.423,9.4a2.509,2.509,0,0,0,1.543,1.186,2.535,2.535,0,0,0,1.925-.254,2.508,2.508,0,0,0,1.186-1.543,2.539,2.539,0,0,0-.255-1.928l-4.645-8.046H48.279A2.544,2.544,0,0,0,50.82,36.42V5.929A2.543,2.543,0,0,0,48.279,3.388ZM25.41,1.694A2.537,2.537,0,0,1,27.8,3.388h-4.77A2.537,2.537,0,0,1,25.41,1.694Zm-12.7.341c.975,1.013,2.9,3.267,3.307,5.588H9.4C9.805,5.3,11.731,3.049,12.706,2.036ZM9.318,23.716h6.776v2.541H9.318Zm6.776-1.694H9.318V9.317h6.776v12.7Zm-8.47,4.731L5.083,29.294V22.328l2.541-3.049Zm6.336,4.586a10.759,10.759,0,0,1-1.254,2.649,10.735,10.735,0,0,1-1.254-2.649Zm.763-1.694H10.688l-.847-1.694H15.57Zm3.065-10.365,2.541,3.049v6.966l-2.541-2.541ZM15.977,48.7a.848.848,0,0,1-1.156.3.826.826,0,0,1-.391-.509.852.852,0,0,1,.086-.645l5.134-8.893H21.6Zm10.28-.426a.847.847,0,1,1-1.694,0V38.961h1.694v9.317ZM36.3,47.852a.855.855,0,0,1,.087.648.826.826,0,0,1-.391.509.846.846,0,0,1-1.158-.307l-5.62-9.741h1.949ZM49.126,36.421a.848.848,0,0,1-.847.847H2.542a.848.848,0,0,1-.847-.847V5.929a.848.848,0,0,1,.847-.847H8.477A8.011,8.011,0,0,0,7.624,8.47v8.163L3.585,21.48a.846.846,0,0,0-.2.542v9.317a.847.847,0,0,0,1.446.6l3.4-3.4,1.168,2.337a.843.843,0,0,0,.335.352c0,1.359,1.731,4.035,2.261,4.824a.847.847,0,0,0,1.406,0c.53-.789,2.257-3.465,2.261-4.824A.842.842,0,0,0,16,30.871l1.168-2.337,3.4,3.4a.847.847,0,0,0,1.446-.6V22.022a.847.847,0,0,0-.2-.542l-4.038-4.846V8.47a8.011,8.011,0,0,0-.853-3.388H48.279a.848.848,0,0,1,.847.847V36.421Z" transform="translate(-0.001 0)"/>
        <path id="Path_1264580" data-name="Path 1264580" d="M111.782,112.63h1.694a.847.847,0,0,0,0-1.694h-1.694a.847.847,0,0,0,0,1.694Z" transform="translate(-99.924 -99.925)"/>
        <path id="Path_1264581" data-name="Path 1264581" d="M111.782,146.764h1.694a.847.847,0,0,0,0-1.694h-1.694a.847.847,0,0,0,0,1.694Z" transform="translate(-99.924 -130.671)"/>
      </g>
    </g>
  </g>
</svg>
