<svg xmlns="http://www.w3.org/2000/svg" xmlns:xlink="http://www.w3.org/1999/xlink" width="115" height="115" viewBox="0 0 115 115">
  <defs>
    <clipPath id="clip-path">
      <rect id="Rectangle_426397" data-name="Rectangle 426397" width="115" height="115" transform="translate(800.781 1954)" fill="#e8bad8" opacity="0.41"/>
    </clipPath>
  </defs>
  <g id="Mask_Group_1099771" data-name="Mask Group 1099771" transform="translate(-800.781 -1954)" clip-path="url(#clip-path)">
    <g id="Group_1229382" data-name="Group 1229382" transform="translate(799.781 1960.273)">
      <g id="Group_1229381" data-name="Group 1229381" transform="translate(1)">
        <ellipse id="Ellipse_13203" data-name="Ellipse 13203" cx="28.658" cy="28.658" rx="28.658" ry="28.658" transform="translate(56.527 44.289)" fill="#b8b1fc"/>
        <ellipse id="Ellipse_13204" data-name="Ellipse 13204" cx="20.842" cy="20.842" rx="20.842" ry="20.842" fill="#b8b1fc"/>
      </g>
      <g id="Group_1229396" data-name="Group 1229396" transform="translate(6879.109 -5323.699)">
        <path id="Path_1526130" data-name="Path 1526130" d="M16.253,3.432a2.122,2.122,0,1,1,0,4.244,2.054,2.054,0,0,1-2.122-2.121,2.121,2.121,0,0,1,2.122-2.122" transform="translate(-6851.835 5342.366)" fill="#d7deed" stroke="#000" stroke-linecap="round" stroke-linejoin="round" stroke-width="2"/>
        <path id="Path_1526131" data-name="Path 1526131" d="M6.579,38.65a5.721,5.721,0,0,0,5.7,5.7,5.625,5.625,0,0,0,5.585-5.7,6.327,6.327,0,0,0-.335-2.011h6.925v6.925a6.322,6.322,0,0,1,2.011-.335,5.7,5.7,0,0,1,5.7,5.585,5.794,5.794,0,0,1-5.7,5.7,6.322,6.322,0,0,1-2.011-.335V61.1H8.366A8.246,8.246,0,0,1,.1,52.834V36.751H7.026a3.683,3.683,0,0,0-.447,1.9" transform="translate(-6853.33 5345.904)" fill="#57606f" stroke="#000" stroke-linecap="round" stroke-linejoin="round" stroke-width="2"/>
        <path id="Path_1526132" data-name="Path 1526132" d="M24.015,55.252a5.72,5.72,0,0,0,5.7-5.7,5.625,5.625,0,0,0-5.7-5.585A6.317,6.317,0,0,0,22,44.306V37.381h6.924a6.346,6.346,0,0,1-.334-2.011,5.7,5.7,0,0,1,5.585-5.7,5.793,5.793,0,0,1,5.7,5.7,6.317,6.317,0,0,1-.335,2.011h6.925V53.353A8.246,8.246,0,0,1,38.2,61.618H22V54.693a3.443,3.443,0,0,0,2.011.559" transform="translate(-6850.997 5345.162)" fill="#ff7979" stroke="#000" stroke-linecap="round" stroke-linejoin="round" stroke-width="2"/>
        <path id="Path_1526133" data-name="Path 1526133" d="M12.287,46.679a5.72,5.72,0,0,1-5.7-5.7,6.345,6.345,0,0,1,.334-2.009H0V23a8.246,8.246,0,0,1,8.265-8.265H24.237v7.037a5.3,5.3,0,0,0-2.681-.671,5.652,5.652,0,0,0-5.584,5.808,5.723,5.723,0,0,0,5.584,5.807,5.3,5.3,0,0,0,2.681-.669v7.037H17.313a6.346,6.346,0,0,1,.334,2.011,5.343,5.343,0,0,1-5.36,5.584" transform="translate(-6853.341 5343.57)" fill="#2f4a5f" stroke="#000" stroke-linecap="round" stroke-linejoin="round" stroke-width="2"/>
        <path id="Path_1526134" data-name="Path 1526134" d="M58.671,11.392a8.291,8.291,0,0,1,0,11.727L47.279,34.511,42.365,29.6a4.4,4.4,0,0,0,1.674-1.117,5.608,5.608,0,1,0-9.047-6.255l-4.913-4.913L35.1,12.286a4.392,4.392,0,0,1-2.346-1.453,5.664,5.664,0,0,1,.112-8.041,5.663,5.663,0,0,1,8.041-.112,7.429,7.429,0,0,1,1.453,2.346L47.391,0Z" transform="translate(-6850.136 5342)" fill="#d7deed" stroke="#000" stroke-linecap="round" stroke-linejoin="round" stroke-width="2"/>
        <rect id="Rectangle_426356" data-name="Rectangle 426356" width="2.792" height="2.792" transform="translate(-6795.822 5398.85)" fill="#2f4a5f" stroke="#000" stroke-linecap="round" stroke-linejoin="round" stroke-width="1"/>
        <rect id="Rectangle_426357" data-name="Rectangle 426357" width="2.792" height="2.792" transform="translate(-6795.822 5393.265)" fill="#2f4a5f" stroke="#000" stroke-linecap="round" stroke-linejoin="round" stroke-width="1"/>
        <rect id="Rectangle_426358" data-name="Rectangle 426358" width="2.792" height="2.792" transform="translate(-6795.822 5387.681)" fill="#2f4a5f" stroke="#000" stroke-linecap="round" stroke-linejoin="round" stroke-width="1"/>
        <rect id="Rectangle_426359" data-name="Rectangle 426359" width="2.792" height="2.792" transform="translate(-6795.822 5382.096)" fill="#2f4a5f" stroke="#000" stroke-linecap="round" stroke-linejoin="round" stroke-width="1"/>
        <rect id="Rectangle_426360" data-name="Rectangle 426360" width="2.792" height="2.792" transform="translate(-6798.613 5401.642)" fill="#2f4a5f" stroke="#000" stroke-linecap="round" stroke-linejoin="round" stroke-width="1"/>
        <rect id="Rectangle_426361" data-name="Rectangle 426361" width="2.792" height="2.792" transform="translate(-6798.613 5396.057)" fill="#2f4a5f" stroke="#000" stroke-linecap="round" stroke-linejoin="round" stroke-width="1"/>
        <rect id="Rectangle_426362" data-name="Rectangle 426362" width="2.792" height="2.792" transform="translate(-6798.613 5390.473)" fill="#2f4a5f" stroke="#000" stroke-linecap="round" stroke-linejoin="round" stroke-width="1"/>
        <rect id="Rectangle_426363" data-name="Rectangle 426363" width="2.792" height="2.792" transform="translate(-6798.613 5384.889)" fill="#2f4a5f" stroke="#000" stroke-linecap="round" stroke-linejoin="round" stroke-width="1"/>
        <rect id="Rectangle_426364" data-name="Rectangle 426364" width="2.792" height="2.792" transform="translate(-6848.873 5348.589)" fill="#2f4a5f" stroke="#000" stroke-linecap="round" stroke-linejoin="round" stroke-width="1"/>
        <rect id="Rectangle_426365" data-name="Rectangle 426365" width="2.792" height="2.792" transform="translate(-6848.873 5343.005)" fill="#2f4a5f" stroke="#000" stroke-linecap="round" stroke-linejoin="round" stroke-width="1"/>
        <rect id="Rectangle_426366" data-name="Rectangle 426366" width="2.792" height="2.792" transform="translate(-6851.665 5351.381)" fill="#2f4a5f" stroke="#000" stroke-linecap="round" stroke-linejoin="round" stroke-width="1"/>
        <rect id="Rectangle_426367" data-name="Rectangle 426367" width="2.792" height="2.792" transform="translate(-6851.665 5345.797)" fill="#2f4a5f" stroke="#000" stroke-linecap="round" stroke-linejoin="round" stroke-width="1"/>
      </g>
    </g>
  </g>
</svg>
