<svg xmlns="http://www.w3.org/2000/svg" xmlns:xlink="http://www.w3.org/1999/xlink" width="115" height="115" viewBox="0 0 115 115">
  <defs>
    <clipPath id="clip-path">
      <rect id="Rectangle_426512" data-name="Rectangle 426512" width="115" height="115" transform="translate(800.781 1954)" fill="#e8bad8" opacity="0.41"/>
    </clipPath>
  </defs>
  <g id="Mask_Group_1099816" data-name="Mask Group 1099816" transform="translate(-800.781 -1954)" clip-path="url(#clip-path)">
    <g id="Group_1229525" data-name="Group 1229525" transform="translate(799.781 1960.273)">
      <g id="Group_1229523" data-name="Group 1229523" transform="translate(1)">
        <ellipse id="Ellipse_13223" data-name="Ellipse 13223" cx="28.658" cy="28.658" rx="28.658" ry="28.658" transform="translate(56.527 44.289)" fill="#ffc94a"/>
        <ellipse id="Ellipse_13224" data-name="Ellipse 13224" cx="20.842" cy="20.842" rx="20.842" ry="20.842" fill="#ffc94a"/>
      </g>
      <g id="Group_1229582" data-name="Group 1229582" transform="translate(29.156 12.496)">
        <path id="Path_1532139" data-name="Path 1532139" d="M6.373,0V76.613H55.127V12.258H42.868V0Z" transform="translate(2.403 0)" fill="#ecf0f1" stroke="#000" stroke-linecap="round" stroke-linejoin="round" stroke-width="2"/>
        <rect id="Rectangle_426624" data-name="Rectangle 426624" width="10.447" height="5.293" transform="translate(27.86 57.529)" fill="#3c3b3d" stroke="#000" stroke-linecap="round" stroke-linejoin="round" stroke-width="2"/>
        <path id="Path_1532140" data-name="Path 1532140" d="M41.858,32.948A13.994,13.994,0,0,1,33.082,45.9V50.36H22.635V45.9A13.958,13.958,0,1,1,41.858,32.948" transform="translate(5.225 7.17)" fill="#d8f2f1" stroke="#000" stroke-linecap="round" stroke-linejoin="round" stroke-width="2"/>
        <rect id="Rectangle_426625" data-name="Rectangle 426625" width="22.706" height="6.965" transform="translate(15.742 6.964)" fill="#4e679b" stroke="#000" stroke-linecap="round" stroke-linejoin="round" stroke-width="2"/>
        <path id="Path_1532141" data-name="Path 1532141" d="M32.876,0,45.134,12.258H32.876Z" transform="translate(12.395)" fill="#bec3c7" stroke="#000" stroke-linecap="round" stroke-linejoin="round" stroke-width="2"/>
        <rect id="Rectangle_426626" data-name="Rectangle 426626" width="8.776" height="6.965" transform="translate(0 69.648)" fill="#bec3c7" stroke="#000" stroke-linecap="round" stroke-linejoin="round" stroke-width="2"/>
        <rect id="Rectangle_426627" data-name="Rectangle 426627" width="8.776" height="69.648" transform="translate(0 0.001)" fill="#bec3c7" stroke="#000" stroke-linecap="round" stroke-linejoin="round" stroke-width="2"/>
        <path id="Path_1532142" data-name="Path 1532142" d="M29.008,51.571H22.043a1.811,1.811,0,0,1,0-3.622h6.965a1.844,1.844,0,0,1,1.811,1.811,2.066,2.066,0,0,1-1.811,1.811" transform="translate(7.628 18.078)" fill="#3c3b3d" stroke="#000" stroke-linecap="round" stroke-linejoin="round" stroke-width="2"/>
        <path id="Path_1532143" data-name="Path 1532143" d="M25.526,41.254a1.81,1.81,0,0,1-1.672-1.115L20.372,31.5a1.721,1.721,0,1,1,3.2-1.254l3.482,8.776a1.7,1.7,0,0,1-.975,2.229Z" transform="translate(7.627 10.984)" fill="#b2dbd8" stroke="#000" stroke-linecap="round" stroke-linejoin="round" stroke-width="2"/>
        <path id="Path_1532144" data-name="Path 1532144" d="M24.472,41.292a1.254,1.254,0,0,1-.7-.139,1.745,1.745,0,0,1-.976-2.229l3.482-8.776a1.72,1.72,0,0,1,3.2,1.253L26,40.177a1.51,1.51,0,0,1-1.533,1.115" transform="translate(8.542 10.945)" fill="#b2dbd8" stroke="#000" stroke-linecap="round" stroke-linejoin="round" stroke-width="2"/>
        <path id="Path_1532145" data-name="Path 1532145" d="M26.353,29.286a1.772,1.772,0,0,1-.836-.139L22.87,27.754l-2.647,1.394a1.776,1.776,0,0,1-1.531-3.2l3.481-1.811a1.506,1.506,0,0,1,1.533,0l3.482,1.811a1.839,1.839,0,0,1,.836,2.368,2.121,2.121,0,0,1-1.672.975" transform="translate(6.661 9.02)" fill="#b2dbd8" stroke="#000" stroke-linecap="round" stroke-linejoin="round" stroke-width="2"/>
        <path id="Path_1532146" data-name="Path 1532146" d="M31.411,29.286a1.772,1.772,0,0,1-.836-.139l-2.647-1.394-2.647,1.394a1.776,1.776,0,1,1-1.531-3.2l3.481-1.811a1.506,1.506,0,0,1,1.533,0l3.482,1.811a1.839,1.839,0,0,1,.836,2.368,2.124,2.124,0,0,1-1.672.975" transform="translate(8.568 9.02)" fill="#b2dbd8" stroke="#000" stroke-linecap="round" stroke-linejoin="round" stroke-width="2"/>
        <path id="Path_1532147" data-name="Path 1532147" d="M39.124,16.166H32.157a1.811,1.811,0,0,1,0-3.622h6.966a1.843,1.843,0,0,1,1.809,1.811,2.065,2.065,0,0,1-1.809,1.811" transform="translate(11.441 4.729)" fill="#c2b8b9" stroke="#000" stroke-linecap="round" stroke-linejoin="round" stroke-width="2"/>
        <path id="Path_1532148" data-name="Path 1532148" d="M39.124,20.01H32.157a1.811,1.811,0,0,1,0-3.622h6.966A1.843,1.843,0,0,1,40.933,18.2a2.065,2.065,0,0,1-1.809,1.811" transform="translate(11.441 6.179)" fill="#c2b8b9" stroke="#000" stroke-linecap="round" stroke-linejoin="round" stroke-width="2"/>
      </g>
    </g>
  </g>
</svg>
