<svg xmlns="http://www.w3.org/2000/svg" xmlns:xlink="http://www.w3.org/1999/xlink" width="115" height="115" viewBox="0 0 115 115">
  <defs>
    <clipPath id="clip-path">
      <rect id="Rectangle_426530" data-name="Rectangle 426530" width="115" height="115" transform="translate(800.781 1954)" fill="#e8bad8" opacity="0.41"/>
    </clipPath>
  </defs>
  <g id="Mask_Group_1099818" data-name="Mask Group 1099818" transform="translate(-800.781 -1954)" clip-path="url(#clip-path)">
    <g id="Group_1229531" data-name="Group 1229531" transform="translate(799.781 1960.273)">
      <g id="Group_1229529" data-name="Group 1229529" transform="translate(1)">
        <ellipse id="Ellipse_13227" data-name="Ellipse 13227" cx="28.658" cy="28.658" rx="28.658" ry="28.658" transform="translate(56.527 44.289)" fill="#ffc94a"/>
        <ellipse id="Ellipse_13228" data-name="Ellipse 13228" cx="20.842" cy="20.842" rx="20.842" ry="20.842" fill="#ffc94a"/>
      </g>
      <g id="Group_1229530" data-name="Group 1229530" transform="translate(5066.7 953.591)">
        <path id="Path_1531909" data-name="Path 1531909" d="M62.841,6.46V70.282H16.35a3.9,3.9,0,0,0,3.9-3.9V6.46H62.841Z" transform="translate(-5038.584 -936.861)" fill="#d7deed" stroke="#000" stroke-linecap="round" stroke-linejoin="round" stroke-width="2"/>
        <path id="Path_1531910" data-name="Path 1531910" d="M57.6,48.143a.578.578,0,0,1-.536-.538V5.414H37.579a.577.577,0,0,1-.536-.536.577.577,0,0,1,.536-.538H57.6a.578.578,0,0,1,.538.538V47.605c.134.269-.134.538-.538.538" transform="translate(-5031.731 -937.563)" fill="#545454" stroke="#000" stroke-linecap="round" stroke-linejoin="round" stroke-width="2"/>
        <rect id="Rectangle_426522" data-name="Rectangle 426522" width="3.226" height="21.364" transform="translate(-4986.225 -893.451)" fill="#fd9b3a" stroke="#000" stroke-linecap="round" stroke-linejoin="round" stroke-width="1"/>
        <rect id="Rectangle_426523" data-name="Rectangle 426523" width="3.226" height="13.168" transform="translate(-5002.348 -885.254)" fill="#ff703d" stroke="#000" stroke-linecap="round" stroke-linejoin="round" stroke-width="1"/>
        <rect id="Rectangle_426524" data-name="Rectangle 426524" width="3.226" height="15.722" transform="translate(-4991.733 -887.943)" fill="#ff703d" stroke="#000" stroke-linecap="round" stroke-linejoin="round" stroke-width="1"/>
        <rect id="Rectangle_426525" data-name="Rectangle 426525" width="3.226" height="7.122" transform="translate(-5007.722 -879.208)" fill="#fd9b3a" stroke="#000" stroke-linecap="round" stroke-linejoin="round" stroke-width="1"/>
        <path id="Path_1531911" data-name="Path 1531911" d="M49.518,6.181V8.6H24.795V22.843H17V63.958H3.027a3.9,3.9,0,0,0,3.9-3.9V0H49.518Z" transform="translate(-5042.998 -939)" fill="#a1a7b2" stroke="#000" stroke-linecap="round" stroke-linejoin="round" stroke-width="2"/>
        <rect id="Rectangle_426526" data-name="Rectangle 426526" width="3.224" height="9.944" transform="translate(-4996.972 -882.03)" fill="#fd9b3a" stroke="#000" stroke-linecap="round" stroke-linejoin="round" stroke-width="1"/>
        <rect id="Rectangle_426527" data-name="Rectangle 426527" width="5.105" height="5.105" transform="translate(-5013.096 -914.142)" fill="#ff703d" stroke="#000" stroke-linecap="round" stroke-linejoin="round" stroke-width="2"/>
        <rect id="Rectangle_426528" data-name="Rectangle 426528" width="5.105" height="5.106" transform="translate(-5013.096 -924.086)" fill="#ff703d" stroke="#000" stroke-linecap="round" stroke-linejoin="round" stroke-width="2"/>
        <rect id="Rectangle_426529" data-name="Rectangle 426529" width="3.226" height="8.868" transform="translate(-5012.963 -880.955)" fill="#ff703d" stroke="#000" stroke-linecap="round" stroke-linejoin="round" stroke-width="1"/>
        <path id="Path_1531912" data-name="Path 1531912" d="M21.318,17.159V62.842a3.9,3.9,0,0,1-3.9,3.9h-.4a4.037,4.037,0,0,1-3.494-3.9V17.159Z" transform="translate(-5039.521 -933.317)" fill="#b8bfcc" stroke="#000" stroke-linecap="round" stroke-linejoin="round" stroke-width="2"/>
        <path id="Path_1531913" data-name="Path 1531913" d="M7.927,10.7V56.382a3.9,3.9,0,0,1-3.9,3.9H3.493A3.922,3.922,0,0,1,0,56.382V10.7Z" transform="translate(-5044 -935.457)" fill="#797d86" stroke="#000" stroke-linecap="round" stroke-linejoin="round" stroke-width="2"/>
        <path id="Path_1531914" data-name="Path 1531914" d="M39.651,13.491H29.706a.538.538,0,0,1,0-1.076h9.944a.577.577,0,0,1,.536.538.491.491,0,0,1-.536.538" transform="translate(-5034.339 -934.888)" fill="#fd9b3a"/>
        <path id="Path_1531915" data-name="Path 1531915" d="M49.726,15.509H29.706a.538.538,0,0,1,0-1.076h20.02a.579.579,0,0,1,.538.538.492.492,0,0,1-.538.538" transform="translate(-5034.339 -934.22)" fill="#fd9b3a"/>
        <path id="Path_1531916" data-name="Path 1531916" d="M39.651,20.959H29.706a.538.538,0,0,1,0-1.076h9.944a.579.579,0,0,1,.536.539.491.491,0,0,1-.536.536" transform="translate(-5034.339 -932.415)" fill="#fd9b3a"/>
        <path id="Path_1531917" data-name="Path 1531917" d="M49.726,22.978H29.706a.538.538,0,0,1,0-1.076h20.02a.58.58,0,0,1,.538.539.492.492,0,0,1-.538.536" transform="translate(-5034.339 -931.746)" fill="#fd9b3a"/>
      </g>
    </g>
  </g>
</svg>
